<mxfile host="app.diagrams.net" agent="Mozilla/5.0 (Windows NT 10.0; Win64; x64) AppleWebKit/537.36 (KHTML, like Gecko) Chrome/129.0.0.0 Safari/537.36" version="24.7.17">
  <diagram name="PÃ¡gina-1" id="ZYLUz4EwhKj-D9zp63Xh">
    <mxGraphModel dx="1434" dy="851" grid="1" gridSize="10" guides="1" tooltips="1" connect="1" arrows="1" fold="1" page="1" pageScale="1" pageWidth="827" pageHeight="1169" background="#ffffff" math="0" shadow="0">
      <root>
        <mxCell id="0" />
        <mxCell id="1" parent="0" />
        <mxCell id="yQGQ-uEshxcvxyNHh_fb-1" value="&lt;b&gt;&lt;font style=&quot;font-size: 16px;&quot;&gt;INICIO&lt;/font&gt;&lt;/b&gt;" style="ellipse;whiteSpace=wrap;html=1;" vertex="1" parent="1">
          <mxGeometry x="285" y="20" width="170" height="60" as="geometry" />
        </mxCell>
        <mxCell id="yQGQ-uEshxcvxyNHh_fb-2" value="&lt;font style=&quot;font-size: 16px;&quot;&gt;&lt;b&gt;int count = 0;&lt;/b&gt;&lt;/font&gt;&lt;div style=&quot;font-size: 16px;&quot;&gt;&lt;font style=&quot;font-size: 16px;&quot;&gt;&lt;b&gt;int maxNumber = 0;&lt;/b&gt;&lt;/font&gt;&lt;/div&gt;" style="rounded=0;whiteSpace=wrap;html=1;" vertex="1" parent="1">
          <mxGeometry x="280" y="120" width="180" height="60" as="geometry" />
        </mxCell>
        <mxCell id="yQGQ-uEshxcvxyNHh_fb-3" value="&lt;b&gt;&lt;font style=&quot;font-size: 16px;&quot;&gt;Introduce Numero&lt;/font&gt;&lt;/b&gt;" style="shape=parallelogram;perimeter=parallelogramPerimeter;whiteSpace=wrap;html=1;fixedSize=1;" vertex="1" parent="1">
          <mxGeometry x="285" y="340" width="170" height="60" as="geometry" />
        </mxCell>
        <mxCell id="yQGQ-uEshxcvxyNHh_fb-4" value="&lt;font style=&quot;font-size: 16px;&quot;&gt;&lt;b&gt;count &amp;gt;= 0&lt;/b&gt;&lt;/font&gt;" style="rhombus;whiteSpace=wrap;html=1;" vertex="1" parent="1">
          <mxGeometry x="305" y="220" width="130" height="80" as="geometry" />
        </mxCell>
        <mxCell id="yQGQ-uEshxcvxyNHh_fb-6" value="&lt;font style=&quot;font-size: 16px;&quot;&gt;&lt;b&gt;FIN&lt;/b&gt;&lt;/font&gt;" style="ellipse;whiteSpace=wrap;html=1;" vertex="1" parent="1">
          <mxGeometry x="600" y="230" width="160" height="60" as="geometry" />
        </mxCell>
        <mxCell id="yQGQ-uEshxcvxyNHh_fb-7" value="" style="endArrow=classic;html=1;rounded=0;entryX=0.5;entryY=0;entryDx=0;entryDy=0;" edge="1" parent="1" source="yQGQ-uEshxcvxyNHh_fb-1" target="yQGQ-uEshxcvxyNHh_fb-2">
          <mxGeometry width="50" height="50" relative="1" as="geometry">
            <mxPoint x="520" y="460" as="sourcePoint" />
            <mxPoint x="570" y="410" as="targetPoint" />
          </mxGeometry>
        </mxCell>
        <mxCell id="yQGQ-uEshxcvxyNHh_fb-8" value="" style="endArrow=classic;html=1;rounded=0;entryX=0.5;entryY=0;entryDx=0;entryDy=0;exitX=0.5;exitY=1;exitDx=0;exitDy=0;" edge="1" parent="1" source="yQGQ-uEshxcvxyNHh_fb-2" target="yQGQ-uEshxcvxyNHh_fb-4">
          <mxGeometry width="50" height="50" relative="1" as="geometry">
            <mxPoint x="380" y="90" as="sourcePoint" />
            <mxPoint x="380" y="130" as="targetPoint" />
          </mxGeometry>
        </mxCell>
        <mxCell id="yQGQ-uEshxcvxyNHh_fb-9" value="" style="endArrow=classic;html=1;rounded=0;entryX=0;entryY=0.5;entryDx=0;entryDy=0;exitX=1;exitY=0.5;exitDx=0;exitDy=0;" edge="1" parent="1" source="yQGQ-uEshxcvxyNHh_fb-4" target="yQGQ-uEshxcvxyNHh_fb-6">
          <mxGeometry width="50" height="50" relative="1" as="geometry">
            <mxPoint x="380" y="190" as="sourcePoint" />
            <mxPoint x="380" y="230" as="targetPoint" />
          </mxGeometry>
        </mxCell>
        <mxCell id="yQGQ-uEshxcvxyNHh_fb-10" value="" style="endArrow=classic;html=1;rounded=0;exitX=0.5;exitY=1;exitDx=0;exitDy=0;" edge="1" parent="1" source="yQGQ-uEshxcvxyNHh_fb-4" target="yQGQ-uEshxcvxyNHh_fb-3">
          <mxGeometry width="50" height="50" relative="1" as="geometry">
            <mxPoint x="380" y="190" as="sourcePoint" />
            <mxPoint x="380" y="230" as="targetPoint" />
          </mxGeometry>
        </mxCell>
        <mxCell id="yQGQ-uEshxcvxyNHh_fb-11" value="&lt;b&gt;&lt;font style=&quot;font-size: 16px;&quot;&gt;numero &amp;lt; 0&lt;/font&gt;&lt;/b&gt;" style="rhombus;whiteSpace=wrap;html=1;" vertex="1" parent="1">
          <mxGeometry x="305" y="530" width="130" height="100" as="geometry" />
        </mxCell>
        <mxCell id="yQGQ-uEshxcvxyNHh_fb-13" value="&lt;b&gt;&lt;font style=&quot;font-size: 16px;&quot;&gt;int count = numero&lt;/font&gt;&lt;/b&gt;" style="rounded=0;whiteSpace=wrap;html=1;" vertex="1" parent="1">
          <mxGeometry x="285" y="440" width="170" height="60" as="geometry" />
        </mxCell>
        <mxCell id="yQGQ-uEshxcvxyNHh_fb-14" value="" style="endArrow=classic;html=1;rounded=0;entryX=0.5;entryY=1;entryDx=0;entryDy=0;" edge="1" parent="1" target="yQGQ-uEshxcvxyNHh_fb-6">
          <mxGeometry width="50" height="50" relative="1" as="geometry">
            <mxPoint x="610" y="580" as="sourcePoint" />
            <mxPoint x="570" y="370" as="targetPoint" />
            <Array as="points">
              <mxPoint x="680" y="580" />
            </Array>
          </mxGeometry>
        </mxCell>
        <mxCell id="yQGQ-uEshxcvxyNHh_fb-15" value="" style="endArrow=classic;html=1;rounded=0;exitX=0.5;exitY=1;exitDx=0;exitDy=0;entryX=0.5;entryY=0;entryDx=0;entryDy=0;" edge="1" parent="1" source="yQGQ-uEshxcvxyNHh_fb-3" target="yQGQ-uEshxcvxyNHh_fb-13">
          <mxGeometry width="50" height="50" relative="1" as="geometry">
            <mxPoint x="380" y="310" as="sourcePoint" />
            <mxPoint x="380" y="350" as="targetPoint" />
          </mxGeometry>
        </mxCell>
        <mxCell id="yQGQ-uEshxcvxyNHh_fb-16" value="" style="endArrow=classic;html=1;rounded=0;entryX=0.5;entryY=0;entryDx=0;entryDy=0;exitX=0.5;exitY=1;exitDx=0;exitDy=0;" edge="1" parent="1" source="yQGQ-uEshxcvxyNHh_fb-13" target="yQGQ-uEshxcvxyNHh_fb-11">
          <mxGeometry width="50" height="50" relative="1" as="geometry">
            <mxPoint x="370" y="510" as="sourcePoint" />
            <mxPoint x="380" y="450" as="targetPoint" />
          </mxGeometry>
        </mxCell>
        <mxCell id="yQGQ-uEshxcvxyNHh_fb-17" value="&lt;font style=&quot;font-size: 16px;&quot;&gt;&lt;b&gt;NO&lt;/b&gt;&lt;/font&gt;" style="text;html=1;align=center;verticalAlign=middle;resizable=0;points=[];autosize=1;strokeColor=none;fillColor=none;" vertex="1" parent="1">
          <mxGeometry x="445" y="208" width="50" height="30" as="geometry" />
        </mxCell>
        <mxCell id="yQGQ-uEshxcvxyNHh_fb-18" value="&lt;b style=&quot;forced-color-adjust: none; color: rgb(0, 0, 0); font-family: Helvetica; font-size: 16px; font-style: normal; font-variant-ligatures: normal; font-variant-caps: normal; letter-spacing: normal; orphans: 2; text-align: center; text-indent: 0px; text-transform: none; widows: 2; word-spacing: 0px; -webkit-text-stroke-width: 0px; white-space: nowrap; background-color: rgb(251, 251, 251); text-decoration-thickness: initial; text-decoration-style: initial; text-decoration-color: initial;&quot;&gt;SI&lt;/b&gt;" style="text;whiteSpace=wrap;html=1;" vertex="1" parent="1">
          <mxGeometry x="440" y="540" width="60" height="40" as="geometry" />
        </mxCell>
        <mxCell id="yQGQ-uEshxcvxyNHh_fb-19" value="&lt;font style=&quot;font-size: 16px;&quot;&gt;&lt;b&gt;SI&lt;/b&gt;&lt;/font&gt;" style="text;html=1;align=center;verticalAlign=middle;resizable=0;points=[];autosize=1;strokeColor=none;fillColor=none;" vertex="1" parent="1">
          <mxGeometry x="394" y="290" width="40" height="30" as="geometry" />
        </mxCell>
        <mxCell id="yQGQ-uEshxcvxyNHh_fb-20" value="&lt;font style=&quot;font-size: 16px;&quot;&gt;&lt;b&gt;NO&lt;/b&gt;&lt;/font&gt;" style="text;html=1;align=center;verticalAlign=middle;resizable=0;points=[];autosize=1;strokeColor=none;fillColor=none;" vertex="1" parent="1">
          <mxGeometry x="380" y="620" width="50" height="30" as="geometry" />
        </mxCell>
        <mxCell id="yQGQ-uEshxcvxyNHh_fb-21" value="&lt;b&gt;&lt;font style=&quot;font-size: 16px;&quot;&gt;maxNumber = numero&lt;/font&gt;&lt;/b&gt;" style="rounded=0;whiteSpace=wrap;html=1;" vertex="1" parent="1">
          <mxGeometry x="280" y="820" width="176" height="60" as="geometry" />
        </mxCell>
        <mxCell id="yQGQ-uEshxcvxyNHh_fb-22" value="" style="endArrow=classic;html=1;rounded=0;exitX=0.5;exitY=1;exitDx=0;exitDy=0;" edge="1" parent="1" source="yQGQ-uEshxcvxyNHh_fb-11" target="yQGQ-uEshxcvxyNHh_fb-28">
          <mxGeometry width="50" height="50" relative="1" as="geometry">
            <mxPoint x="380" y="510" as="sourcePoint" />
            <mxPoint x="370" y="690" as="targetPoint" />
          </mxGeometry>
        </mxCell>
        <mxCell id="yQGQ-uEshxcvxyNHh_fb-24" value="" style="endArrow=classic;html=1;rounded=0;entryX=0;entryY=0.5;entryDx=0;entryDy=0;exitX=0;exitY=0.5;exitDx=0;exitDy=0;" edge="1" parent="1" source="yQGQ-uEshxcvxyNHh_fb-21" target="yQGQ-uEshxcvxyNHh_fb-4">
          <mxGeometry width="50" height="50" relative="1" as="geometry">
            <mxPoint x="380" y="640" as="sourcePoint" />
            <mxPoint x="380" y="710" as="targetPoint" />
            <Array as="points">
              <mxPoint x="120" y="850" />
              <mxPoint x="120" y="260" />
            </Array>
          </mxGeometry>
        </mxCell>
        <mxCell id="yQGQ-uEshxcvxyNHh_fb-25" value="&lt;b&gt;&lt;font style=&quot;font-size: 16px;&quot;&gt;Mostrar maxNumber&lt;/font&gt;&lt;/b&gt;" style="shape=parallelogram;perimeter=parallelogramPerimeter;whiteSpace=wrap;html=1;fixedSize=1;" vertex="1" parent="1">
          <mxGeometry x="470" y="550" width="150" height="60" as="geometry" />
        </mxCell>
        <mxCell id="yQGQ-uEshxcvxyNHh_fb-27" value="" style="endArrow=classic;html=1;rounded=0;exitX=1;exitY=0.5;exitDx=0;exitDy=0;entryX=0;entryY=0.5;entryDx=0;entryDy=0;" edge="1" parent="1" source="yQGQ-uEshxcvxyNHh_fb-11" target="yQGQ-uEshxcvxyNHh_fb-25">
          <mxGeometry width="50" height="50" relative="1" as="geometry">
            <mxPoint x="380" y="310" as="sourcePoint" />
            <mxPoint x="380" y="350" as="targetPoint" />
          </mxGeometry>
        </mxCell>
        <mxCell id="yQGQ-uEshxcvxyNHh_fb-28" value="&lt;font style=&quot;font-size: 16px;&quot;&gt;&lt;b&gt;maxNumber &amp;lt; numero&lt;/b&gt;&lt;/font&gt;" style="rhombus;whiteSpace=wrap;html=1;" vertex="1" parent="1">
          <mxGeometry x="267.5" y="660" width="205" height="100" as="geometry" />
        </mxCell>
        <mxCell id="yQGQ-uEshxcvxyNHh_fb-29" value="" style="endArrow=classic;html=1;rounded=0;entryX=0.5;entryY=0;entryDx=0;entryDy=0;" edge="1" parent="1" target="yQGQ-uEshxcvxyNHh_fb-21">
          <mxGeometry width="50" height="50" relative="1" as="geometry">
            <mxPoint x="368" y="760" as="sourcePoint" />
            <mxPoint x="380" y="670" as="targetPoint" />
          </mxGeometry>
        </mxCell>
        <mxCell id="yQGQ-uEshxcvxyNHh_fb-31" value="&lt;b style=&quot;forced-color-adjust: none; color: rgb(0, 0, 0); font-family: Helvetica; font-size: 16px; font-style: normal; font-variant-ligatures: normal; font-variant-caps: normal; letter-spacing: normal; orphans: 2; text-align: center; text-indent: 0px; text-transform: none; widows: 2; word-spacing: 0px; -webkit-text-stroke-width: 0px; white-space: nowrap; background-color: rgb(251, 251, 251); text-decoration-thickness: initial; text-decoration-style: initial; text-decoration-color: initial;&quot;&gt;SI&lt;/b&gt;" style="text;whiteSpace=wrap;html=1;" vertex="1" parent="1">
          <mxGeometry x="380" y="760" width="60" height="40" as="geometry" />
        </mxCell>
        <mxCell id="yQGQ-uEshxcvxyNHh_fb-32" value="&lt;font style=&quot;font-size: 16px;&quot;&gt;&lt;b&gt;NO&lt;/b&gt;&lt;/font&gt;" style="text;html=1;align=center;verticalAlign=middle;resizable=0;points=[];autosize=1;strokeColor=none;fillColor=none;" vertex="1" parent="1">
          <mxGeometry x="235" y="670" width="50" height="30" as="geometry" />
        </mxCell>
        <mxCell id="yQGQ-uEshxcvxyNHh_fb-34" value="" style="endArrow=none;html=1;rounded=0;entryX=0;entryY=0.5;entryDx=0;entryDy=0;" edge="1" parent="1" target="yQGQ-uEshxcvxyNHh_fb-28">
          <mxGeometry width="50" height="50" relative="1" as="geometry">
            <mxPoint x="120" y="710" as="sourcePoint" />
            <mxPoint x="570" y="450" as="targetPoint" />
          </mxGeometry>
        </mxCell>
        <mxCell id="yQGQ-uEshxcvxyNHh_fb-35" value="&lt;font style=&quot;font-size: 16px;&quot;&gt;&lt;b&gt;Diagrama programa calcular maximo N numeros&lt;/b&gt;&lt;/font&gt;" style="text;html=1;align=center;verticalAlign=middle;resizable=0;points=[];autosize=1;strokeColor=none;fillColor=none;" vertex="1" parent="1">
          <mxGeometry x="430" width="390" height="30" as="geometry" />
        </mxCell>
      </root>
    </mxGraphModel>
  </diagram>
</mxfile>
